# xmcd CD database file
#
# Track frame offsets:
#	150
#	20405
#	41545
#	67755
#	89850
#	112130
#	127817
#	142330
#	166382
#	182272
#	206662
#
# Disc length: 2991 seconds
#
# Revision: 0
# Processed by: cddbd v1.5.1PL0 Copyright (c) Steve Scherf et al.
# Submitted via: CDex 1.51
#
DISCID=9a0bad0b
DTITLE=Amika - 「会えない事になった日」
DYEAR=2000
DGENRE=Top 40
TTITLE0=オレンジの匂い
TTITLE1=ランチ後
TTITLE2=愛情
TTITLE3=一枚のガム
TTITLE4=90%
TTITLE5=自転車
TTITLE6=目
TTITLE7=ラストデイ
TTITLE8=午後
TTITLE9=九月
TTITLE10=このまま
EXTD=YEAR: 2000
EXTT0=
EXTT1=
EXTT2=
EXTT3=
EXTT4=
EXTT5=
EXTT6=
EXTT7=
EXTT8=
EXTT9=
EXTT10=
PLAYORDER=
